<svg width="244" height="125" viewBox="0 0 244 125" fill="none" xmlns="http://www.w3.org/2000/svg">
<g filter="url(#filter0_d)">
<rect x="4" width="236" height="117" rx="9" fill="#3A5AFF"/>
</g>
<path d="M52.95 52.55L44.9 44.5L52.95 36.45L50.5 34L40 44.5L50.5 55L52.95 52.55ZM62.05 52.55L70.1 44.5L62.05 36.45L64.5 34L75 44.5L64.5 55L62.05 52.55V52.55Z" fill="white"/>
<path d="M112.52 28.568C109.032 28.568 106.568 29.784 105.128 32.216C103.72 34.616 103.016 37.944 103.016 42.2C103.016 46.456 103.72 49.8 105.128 52.232C106.568 54.632 109.032 55.832 112.52 55.832C113.736 55.832 114.936 55.704 116.12 55.448C117.304 55.16 118.584 54.792 119.96 54.344L120.92 57.848C118.232 59 115.416 59.576 112.472 59.576C107.416 59.576 103.72 58.072 101.384 55.064C99.048 52.024 97.88 47.736 97.88 42.2C97.88 36.632 99.064 32.344 101.432 29.336C103.832 26.328 107.528 24.824 112.52 24.824C114.216 24.824 115.688 24.984 116.936 25.304C118.184 25.624 119.464 26.024 120.776 26.504L119.816 29.864C116.968 29 114.536 28.568 112.52 28.568ZM147.959 46.616C147.959 50.744 146.999 53.944 145.079 56.216C143.159 58.456 140.247 59.576 136.343 59.576C132.471 59.576 129.575 58.456 127.655 56.216C125.735 53.944 124.775 50.744 124.775 46.616C124.775 42.488 125.735 39.304 127.655 37.064C129.575 34.792 132.471 33.656 136.343 33.656C140.247 33.656 143.159 34.792 145.079 37.064C146.999 39.304 147.959 42.488 147.959 46.616ZM136.391 56.312C140.711 56.312 142.871 53.08 142.871 46.616C142.871 40.152 140.711 36.92 136.391 36.92C134.055 36.92 132.375 37.816 131.351 39.608C130.359 41.368 129.863 43.704 129.863 46.616C129.863 49.528 130.359 51.88 131.351 53.672C132.375 55.432 134.055 56.312 136.391 56.312ZM162.983 59.576C159.591 59.576 157.031 58.456 155.303 56.216C153.607 53.976 152.759 50.808 152.759 46.712C152.759 42.616 153.751 39.416 155.735 37.112C157.719 34.808 160.551 33.656 164.231 33.656C164.999 33.656 165.783 33.752 166.583 33.944C167.415 34.104 168.087 34.28 168.599 34.472C169.143 34.632 169.495 34.744 169.655 34.808V23.48H174.455V54.056L175.607 59.384H173.303C172.407 59.384 171.719 58.968 171.239 58.136L170.567 56.888H169.799C169.063 57.912 168.167 58.616 167.111 59C166.055 59.384 164.679 59.576 162.983 59.576ZM157.847 46.664C157.847 49.704 158.295 52.072 159.191 53.768C160.119 55.464 161.799 56.312 164.231 56.312C165.351 56.312 166.375 56.136 167.303 55.784C168.231 55.4 169.015 54.936 169.655 54.392V37.88C169.527 37.816 169.223 37.72 168.743 37.592C168.295 37.432 167.671 37.288 166.871 37.16C166.071 37 165.191 36.92 164.231 36.92C161.895 36.92 160.247 37.768 159.287 39.464C158.327 41.16 157.847 43.56 157.847 46.664ZM191.593 33.656C188.041 33.656 185.337 34.856 183.481 37.256C181.625 39.624 180.697 42.744 180.697 46.616C180.697 50.584 181.657 53.736 183.577 56.072C185.497 58.408 188.313 59.576 192.025 59.576C195.193 59.576 198.201 58.952 201.049 57.704L200.089 54.824C198.681 55.304 197.401 55.656 196.249 55.88C195.129 56.072 193.897 56.168 192.553 56.168C188.041 56.168 185.785 53.336 185.785 47.672H201.961V45.896C201.961 37.736 198.505 33.656 191.593 33.656ZM185.785 44.696C185.881 42.2 186.329 40.28 187.129 38.936C187.961 37.592 189.433 36.92 191.545 36.92C193.689 36.92 195.161 37.608 195.961 38.984C196.761 40.328 197.161 42.232 197.161 44.696H185.785Z" fill="white"/>
<path d="M47.776 70.004H40.108V66.8H59.152V70.004H51.412V92H47.776V70.004ZM86.0842 79.4C86.0842 83.528 85.1842 86.732 83.3842 89.012C81.6082 91.292 78.8122 92.432 74.9962 92.432C71.1802 92.432 68.3842 91.304 66.6082 89.048C64.8322 86.768 63.9442 83.552 63.9442 79.4C63.9442 75.224 64.8442 72.008 66.6442 69.752C68.4442 67.496 71.2282 66.368 74.9962 66.368C78.7642 66.368 81.5482 67.496 83.3482 69.752C85.1722 72.008 86.0842 75.224 86.0842 79.4ZM75.0322 89.624C77.6722 89.624 79.5442 88.712 80.6482 86.888C81.7522 85.064 82.3042 82.568 82.3042 79.4C82.3042 76.232 81.7522 73.736 80.6482 71.912C79.5442 70.088 77.6722 69.176 75.0322 69.176C72.3922 69.176 70.5202 70.088 69.4162 71.912C68.3362 73.712 67.7962 76.208 67.7962 79.4C67.7962 82.592 68.3362 85.1 69.4162 86.924C70.5202 88.724 72.3922 89.624 75.0322 89.624ZM116.517 79.4C116.517 83.528 115.617 86.732 113.817 89.012C112.041 91.292 109.245 92.432 105.429 92.432C101.613 92.432 98.8169 91.304 97.0409 89.048C95.2649 86.768 94.3769 83.552 94.3769 79.4C94.3769 75.224 95.2769 72.008 97.0769 69.752C98.8769 67.496 101.661 66.368 105.429 66.368C109.197 66.368 111.981 67.496 113.781 69.752C115.605 72.008 116.517 75.224 116.517 79.4ZM105.465 89.624C108.105 89.624 109.977 88.712 111.081 86.888C112.185 85.064 112.737 82.568 112.737 79.4C112.737 76.232 112.185 73.736 111.081 71.912C109.977 70.088 108.105 69.176 105.465 69.176C102.825 69.176 100.953 70.088 99.8489 71.912C98.7689 73.712 98.2289 76.208 98.2289 79.4C98.2289 82.592 98.7689 85.1 99.8489 86.924C100.953 88.724 102.825 89.624 105.465 89.624ZM129.382 66.8V88.904H140.182V92H125.782V66.8H129.382ZM148.276 66.8H151.876V92H148.276V66.8ZM161.092 66.8L152.704 78.824L161.848 92.54L165.7 92.036L156.376 78.572L165.124 66.8H161.092ZM173.254 66.8H176.854V92H173.254V66.8ZM191.806 70.004H184.138V66.8H203.182V70.004H195.442V92H191.806V70.004Z" fill="white"/>
<defs>
<filter id="filter0_d" x="0" y="0" width="244" height="125" filterUnits="userSpaceOnUse" color-interpolation-filters="sRGB">
<feFlood flood-opacity="0" result="BackgroundImageFix"/>
<feColorMatrix in="SourceAlpha" type="matrix" values="0 0 0 0 0 0 0 0 0 0 0 0 0 0 0 0 0 0 127 0"/>
<feOffset dy="4"/>
<feGaussianBlur stdDeviation="2"/>
<feColorMatrix type="matrix" values="0 0 0 0 0 0 0 0 0 0 0 0 0 0 0 0 0 0 0.25 0"/>
<feBlend mode="normal" in2="BackgroundImageFix" result="effect1_dropShadow"/>
<feBlend mode="normal" in="SourceGraphic" in2="effect1_dropShadow" result="shape"/>
</filter>
</defs>
</svg>
